<?xml version="1.0" encoding="utf-8"?>
<!-- Generator: Adobe Illustrator 24.1.0, SVG Export Plug-In . SVG Version: 6.00 Build 0)  -->
<svg version="1.1" id="Layer_1" xmlns="http://www.w3.org/2000/svg" xmlns:xlink="http://www.w3.org/1999/xlink" x="0px" y="0px"
	 viewBox="0 0 87 35" style="enable-background:new 0 0 87 35;" xml:space="preserve">
<style type="text/css">
	.st0{fill:#FFFFFF;}
</style>
<rect x="0" y="0" class="st0" width="85.2" height="35"/>
<polygon points="4.2,7.9 4.2,23.7 13.3,23.7 13.3,27.2 19.9,27.2 19.9,7.9 "/>
<path d="M22.8,11.5V7.9h3.9v3.6H22.8z M22.9,27.2V12.8h3.8v14.4H22.9z"/>
<path d="M31.9,23.1c0,0,0.8,1.3,3.9,1.3c2.1,0,2.2-0.5,2.2-1.2c0-2.4-8.6-0.5-8.6-6.1c0-1.4,1-4.4,6-4.4c2.1,0,4,0.8,5.6,2.1
	l-2.3,2.1c-0.9-0.7-2.1-1.1-3.3-1c-1.4,0-2.2,0.5-2.2,1.2c0,3,8.6,0.5,8.6,6.1c0,2.3-1.3,4.4-5.8,4.4c-5.9,0-7.2-3.2-7.2-3.2
	L31.9,23.1z"/>
<path d="M48.8,16v6.5c0,0.7,0,1.9,1.8,1.9c0.5,0,1.1-0.1,1.6-0.2v3.2c-1.1,0.2-2.2,0.2-3.2,0.2c-3.4,0-3.9-2-3.9-5.1V16h-2.5v-3.2
	H45V7.9h3.7v4.9h3.5V16H48.8z"/>
<path d="M64.4,22.7l2.9,1.5c-1.4,2.1-3.7,3.4-6.2,3.3c-4.8,0-7.2-3.4-7.2-7.4c0-3.8,2.1-7.5,7.2-7.5c4.8,0,7.2,3.7,7.2,7.5v1.4H57.4
	c0.2,1.8,1.9,3.1,3.6,2.8C62.4,24.4,63.7,23.8,64.4,22.7z M57.5,18.3h7C64,16.4,62,15.3,60,15.8C58.8,16.1,57.8,17.1,57.5,18.3z"/>
<path d="M84.2,27.2h-3.8v-8.9c0-1.1-0.2-2.7-2.4-2.7s-3.6,1.5-3.6,4.5v7.1h-3.8V12.8h3.8l0.6,1.3c0.9-1,2.2-1.5,3.5-1.5
	c3,0,5.7,0.9,5.7,5.8L84.2,27.2z"/>
</svg>
